REM DIRINDEX 1\2\3,1\2\4,1\2\5,1\2\6
REM DIRNAME folder01,folder02,folder03,folder04,folder05,folder06
TITLE ""
FILE "125 125.mp3" MP3
  TRACK 01 AUDIO
    TITLE "0:"
    INDEX 01 00:00:00
  TRACK 02 AUDIO
    TITLE "3:cjc157_4663"
    INDEX 01 00:00:11
  TRACK 03 AUDIO
    TITLE "0:"
    INDEX 01 00:01:40
  TRACK 04 AUDIO
    TITLE "4:cjc157_4664"
    INDEX 01 00:02:10
  TRACK 05 AUDIO
    TITLE "0:"
    INDEX 01 00:03:29
  TRACK 06 AUDIO
    TITLE "5:cjc157_4665"
    INDEX 01 00:03:72
  TRACK 07 AUDIO
    TITLE "0:"
    INDEX 01 00:06:20
  TRACK 08 AUDIO
    TITLE "5:cjc157_4666"
    INDEX 01 00:07:02
  TRACK 09 AUDIO
    TITLE "0:"
    INDEX 01 00:09:14
  TRACK 10 AUDIO
    TITLE "3:cjc157_4667"
    INDEX 01 00:09:59
  TRACK 11 AUDIO
    TITLE "0:"
    INDEX 01 00:11:19
  TRACK 12 AUDIO
    TITLE "4:cjc157_4668"
    INDEX 01 00:11:62
  TRACK 13 AUDIO
    TITLE "0:"
    INDEX 01 00:13:18
  TRACK 14 AUDIO
    TITLE "5:cjc157_4669"
    INDEX 01 00:13:65
  TRACK 15 AUDIO
    TITLE "0:"
    INDEX 01 00:16:04
  TRACK 16 AUDIO
    TITLE "5:cjc157_4670"
    INDEX 01 00:16:49
  TRACK 17 AUDIO
    TITLE "0:"
    INDEX 01 00:19:09
  TRACK 18 AUDIO
    TITLE "5:cjc157_4671"
    INDEX 01 00:19:52
  TRACK 19 AUDIO
    TITLE "0:"
    INDEX 01 00:21:04
  TRACK 20 AUDIO
    TITLE "3:cjc157_4672"
    INDEX 01 00:21:53
  TRACK 21 AUDIO
    TITLE "0:"
    INDEX 01 00:22:74
  TRACK 22 AUDIO
    TITLE "4:cjc157_4673"
    INDEX 01 00:23:48
  TRACK 23 AUDIO
    TITLE "0:"
    INDEX 01 00:24:61
  TRACK 24 AUDIO
    TITLE "5:cjc157_4674"
    INDEX 01 00:25:33
  TRACK 25 AUDIO
    TITLE "0:"
    INDEX 01 00:28:59
  TRACK 26 AUDIO
    TITLE "5:cjc157_4675"
    INDEX 01 00:29:29
  TRACK 27 AUDIO
    TITLE "0:"
    INDEX 01 00:31:22
  TRACK 28 AUDIO
    TITLE "3:cjc157_4676"
    INDEX 01 00:31:67
  TRACK 29 AUDIO
    TITLE "0:"
    INDEX 01 00:33:30
  TRACK 30 AUDIO
    TITLE "4:cjc157_4677"
    INDEX 01 00:34:02
  TRACK 31 AUDIO
    TITLE "0:"
    INDEX 01 00:35:08
  TRACK 32 AUDIO
    TITLE "5:cjc157_4678"
    INDEX 01 00:35:59
  TRACK 33 AUDIO
    TITLE "0:"
    INDEX 01 00:38:39
  TRACK 34 AUDIO
    TITLE "5:cjc157_4679"
    INDEX 01 00:39:11
  TRACK 35 AUDIO
    TITLE "0:"
    INDEX 01 00:41:08
  TRACK 36 AUDIO
    TITLE "5:cjc157_4680"
    INDEX 01 00:41:55
  TRACK 37 AUDIO
    TITLE "0:"
    INDEX 01 00:44:07
  TRACK 38 AUDIO
    TITLE "3:cjc157_4681"
    INDEX 01 00:44:48
  TRACK 39 AUDIO
    TITLE "0:"
    INDEX 01 00:45:69
  TRACK 40 AUDIO
    TITLE "4:cjc157_4682"
    INDEX 01 00:46:39
  TRACK 41 AUDIO
    TITLE "0:"
    INDEX 01 00:47:44
  TRACK 42 AUDIO
    TITLE "5:cjc157_4683"
    INDEX 01 00:48:16
  TRACK 43 AUDIO
    TITLE "0:"
    INDEX 01 00:50:19
  TRACK 44 AUDIO
    TITLE "5:cjc157_4684"
    INDEX 01 00:50:64
  TRACK 45 AUDIO
    TITLE "0:"
    INDEX 01 00:52:37
  TRACK 46 AUDIO
    TITLE "3:cjc157_4685"
    INDEX 01 00:53:09
  TRACK 47 AUDIO
    TITLE "0:"
    INDEX 01 00:54:19
  TRACK 48 AUDIO
    TITLE "4:cjc157_4686"
    INDEX 01 00:54:62
  TRACK 49 AUDIO
    TITLE "0:"
    INDEX 01 00:55:63
  TRACK 50 AUDIO
    TITLE "5:cjc157_4687"
    INDEX 01 00:56:37
  TRACK 51 AUDIO
    TITLE "0:"
    INDEX 01 00:58:20
  TRACK 52 AUDIO
    TITLE "5:cjc157_4688"
    INDEX 01 00:58:66
  TRACK 53 AUDIO
    TITLE "0:"
    INDEX 01 01:00:70
  TRACK 54 AUDIO
    TITLE "5:cjc157_4689"
    INDEX 01 01:01:44
  TRACK 55 AUDIO
    TITLE "0:"
    INDEX 01 01:03:26
  TRACK 56 AUDIO
    TITLE "3:cjc157_4690"
    INDEX 01 01:03:69
  TRACK 57 AUDIO
    TITLE "0:"
    INDEX 01 01:05:15
  TRACK 58 AUDIO
    TITLE "4:cjc157_4691"
    INDEX 01 01:05:62
  TRACK 59 AUDIO
    TITLE "0:"
    INDEX 01 01:06:69
  TRACK 60 AUDIO
    TITLE "5:cjc157_4692"
    INDEX 01 01:07:37
  TRACK 61 AUDIO
    TITLE "0:"
    INDEX 01 01:09:22
  TRACK 62 AUDIO
    TITLE "5:cjc157_4693"
    INDEX 01 01:09:65
  TRACK 63 AUDIO
    TITLE "0:"
    INDEX 01 01:11:45
  TRACK 64 AUDIO
    TITLE "3:cjc157_4694"
    INDEX 01 01:12:15
  TRACK 65 AUDIO
    TITLE "0:"
    INDEX 01 01:13:49
  TRACK 66 AUDIO
    TITLE "4:cjc157_4695"
    INDEX 01 01:14:19
  TRACK 67 AUDIO
    TITLE "0:"
    INDEX 01 01:15:33
  TRACK 68 AUDIO
    TITLE "5:cjc157_4696"
    INDEX 01 01:16:07
  TRACK 69 AUDIO
    TITLE "0:"
    INDEX 01 01:18:31
  TRACK 70 AUDIO
    TITLE "3:cjc157_4697"
    INDEX 01 01:19:05
  TRACK 71 AUDIO
    TITLE "0:"
    INDEX 01 01:20:16
  TRACK 72 AUDIO
    TITLE "4:cjc157_4698"
    INDEX 01 01:20:59
  TRACK 73 AUDIO
    TITLE "0:"
    INDEX 01 01:21:69
  TRACK 74 AUDIO
    TITLE "5:cjc157_4699"
    INDEX 01 01:22:41
  TRACK 75 AUDIO
    TITLE "0:"
    INDEX 01 01:24:51
  TRACK 76 AUDIO
    TITLE "5:cjc157_4700"
    INDEX 01 01:25:19
  TRACK 77 AUDIO
    TITLE "0:"
    INDEX 01 01:27:69
  TRACK 78 AUDIO
    TITLE "5:cjc157_4701"
    INDEX 01 01:28:41
  TRACK 79 AUDIO
    TITLE "0:"
    INDEX 01 01:30:15
  TRACK 80 AUDIO
    TITLE "5:cjc157_4702"
    INDEX 01 01:30:62
  TRACK 81 AUDIO
    TITLE "0:"
    INDEX 01 01:32:72
  TRACK 82 AUDIO
    TITLE "3:cjc157_4703"
    INDEX 01 01:33:46
  TRACK 83 AUDIO
    TITLE "0:"
    INDEX 01 01:34:59
  TRACK 84 AUDIO
    TITLE "4:cjc157_4704"
    INDEX 01 01:35:37
  TRACK 85 AUDIO
    TITLE "0:"
    INDEX 01 01:36:47
  TRACK 86 AUDIO
    TITLE "5:cjc157_4705"
    INDEX 01 01:37:17
  TRACK 87 AUDIO
    TITLE "0:"
    INDEX 01 01:39:59
  TRACK 88 AUDIO
    TITLE "5:cjc157_4706"
    INDEX 01 01:40:29
  TRACK 89 AUDIO
    TITLE "0:"
    INDEX 01 01:42:57
